<svg xmlns="http://www.w3.org/2000/svg" viewBox="0 0 100 100">
  <defs>
    <linearGradient id="grad" x1="0%" y1="0%" x2="100%" y2="100%">
      <stop offset="0%" style="stop-color:#f97316;stop-opacity:1" />
      <stop offset="100%" style="stop-color:#ea580c;stop-opacity:1" />
    </linearGradient>
  </defs>
  
  <!-- Background circle -->
  <circle cx="50" cy="50" r="48" fill="url(#grad)"/>
  
  <!-- Chef hat -->
  <path d="M 30 45 Q 30 35 35 30 Q 40 35 45 35 Q 45 30 50 28 Q 55 30 55 35 Q 60 35 65 30 Q 70 35 70 45 L 70 50 L 30 50 Z" fill="white"/>
  <rect x="28" y="50" width="44" height="8" rx="2" fill="white"/>
  
  <!-- Spoon -->
  <ellipse cx="35" cy="70" rx="4" ry="6" fill="white"/>
  <rect x="33" y="70" width="4" height="15" rx="1" fill="white"/>
  
  <!-- Fork -->
  <rect x="60" y="70" width="2" height="15" rx="1" fill="white"/>
  <rect x="64" y="70" width="2" height="15" rx="1" fill="white"/>
  <rect x="68" y="70" width="2" height="15" rx="1" fill="white"/>
  <rect x="60" y="70" width="10" height="4" rx="1" fill="white"/>
</svg>
